0
SECTION
2
HEADER
9
$INSUNITS
70
1
9
$ACADVER
1
AC1014
9
$HANDSEED
5
FFFF
0
ENDSEC
0
SECTION
2
TABLES
0
TABLE
2
VPORT
5
8
100
AcDbSymbolTable
0
ENDTAB
0
TABLE
2
LTYPE
5
5
100
AcDbSymbolTable
0
LTYPE
5
14
100
AcDbSymbolTableRecord
100
AcDbLinetypeTableRecord
2
BYBLOCK
70
0
0
LTYPE
5
15
100
AcDbSymbolTableRecord
100
AcDbLinetypeTableRecord
2
BYLAYER
70
0
0
ENDTAB
0
TABLE
2
LAYER
5
2
100
AcDbSymbolTable
70
2
0
LAYER
5
50
100
AcDbSymbolTableRecord
100
AcDbLayerTableRecord
2
0
70
0
6
CONTINUOUS
0
ENDTAB
0
TABLE
2
STYLE
5
3
100
AcDbSymbolTable
70
1
0
STYLE
5
11
100
AcDbSymbolTableRecord
100
AcDbTextStyleTableRecord
2
STANDARD
70
0
0
ENDTAB
0
TABLE
2
VIEW
5
6
100
AcDbSymbolTable
70
0
0
ENDTAB
0
TABLE
2
UCS
5
7
100
AcDbSymbolTable
70
0
0
ENDTAB
0
TABLE
2
APPID
5
9
100
AcDbSymbolTable
70
2
0
APPID
5
12
100
AcDbSymbolTableRecord
100
AcDbRegAppTableRecord
2
ACAD
70
0
0
ENDTAB
0
TABLE
2
DIMSTYLE
5
A
100
AcDbSymbolTable
70
1
0
ENDTAB
0
TABLE
2
BLOCK_RECORD
5
1
100
AcDbSymbolTable
70
1
0
BLOCK_RECORD
5
1F
100
AcDbSymbolTableRecord
100
AcDbBlockTableRecord
2
*MODEL_SPACE
0
BLOCK_RECORD
5
1B
100
AcDbSymbolTableRecord
100
AcDbBlockTableRecord
2
*PAPER_SPACE
0
ENDTAB
0
ENDSEC
0
SECTION
2
BLOCKS
0
BLOCK
5
20
100
AcDbEntity
100
AcDbBlockBegin
2
*MODEL_SPACE
0
ENDBLK
5
21
100
AcDbEntity
100
AcDbBlockEnd
0
BLOCK
5
1C
100
AcDbEntity
100
AcDbBlockBegin
2
*PAPER_SPACE
0
ENDBLK
5
1D
100
AcDbEntity
100
AcDbBlockEnd
0
ENDSEC
0
SECTION
2
ENTITIES
0
LWPOLYLINE
5
100
100
AcDbEntity
8
0
100
AcDbPolyline
90
8
70
1
43
0.0
10
-1
20
-0.75000000000000033
42
0.41421356237309592
10
-0.75000000000000011
20
-1.0000000000000002
10
8.6240157480314945
20
-0.99999999999999989
42
0.41421356237309126
10
8.8740157480314945
20
-0.75
10
8.8740157480314945
20
14.75
42
0.41421356237309664
10
8.6240157480314927
20
15
10
-0.75000000000000033
20
15
42
0.41421356237310014
10
-0.99999999999999833
20
14.75
0
LWPOLYLINE
5
101
100
AcDbEntity
8
0
100
AcDbPolyline
90
4
70
1
43
0.0
10
8.5615157480314945
20
14.300000000000001
10
8.3615157480314952
20
14.300000000000001
10
8.3615157480314952
20
14.699999999999999
10
8.5615157480314945
20
14.699999999999999
0
LWPOLYLINE
5
102
100
AcDbEntity
8
0
100
AcDbPolyline
90
4
70
1
43
0.0
10
8.5615157480314945
20
10.550000000000001
10
8.3615157480314952
20
10.550000000000001
10
8.3615157480314952
20
10.949999999999999
10
8.5615157480314945
20
10.949999999999999
0
LWPOLYLINE
5
103
100
AcDbEntity
8
0
100
AcDbPolyline
90
4
70
1
43
0.0
10
8.5615157480314945
20
6.7999999999999998
10
8.3615157480314952
20
6.7999999999999998
10
8.3615157480314952
20
7.2000000000000011
10
8.5615157480314945
20
7.2000000000000011
0
LWPOLYLINE
5
104
100
AcDbEntity
8
0
100
AcDbPolyline
90
4
70
1
43
0.0
10
8.5615157480314945
20
3.0500000000000012
10
8.3615157480314952
20
3.0500000000000012
10
8.3615157480314952
20
3.4500000000000002
10
8.5615157480314945
20
3.4500000000000002
0
LWPOLYLINE
5
105
100
AcDbEntity
8
0
100
AcDbPolyline
90
4
70
1
43
0.0
10
8.5615157480314945
20
-0.70000000000000218
10
8.3615157480314952
20
-0.70000000000000218
10
8.3615157480314952
20
-0.30000000000000154
10
8.5615157480314945
20
-0.30000000000000154
0
LWPOLYLINE
5
106
100
AcDbEntity
8
0
100
AcDbPolyline
90
4
70
1
43
0.0
10
0.66250000000000153
20
14.699999999999999
10
0.66250000000000153
20
14.499999999999998
10
0.26250000000000151
20
14.499999999999998
10
0.26250000000000151
20
14.699999999999999
0
LWPOLYLINE
5
107
100
AcDbEntity
8
0
100
AcDbPolyline
90
4
70
1
43
0.0
10
4.1370078740157483
20
14.699999999999999
10
4.1370078740157483
20
14.499999999999998
10
3.7370078740157489
20
14.499999999999998
10
3.7370078740157489
20
14.699999999999999
0
LWPOLYLINE
5
108
100
AcDbEntity
8
0
100
AcDbPolyline
90
4
70
1
43
0.0
10
7.6115157480314952
20
14.699999999999999
10
7.6115157480314952
20
14.499999999999998
10
7.2115157480314958
20
14.499999999999998
10
7.2115157480314958
20
14.699999999999999
0
LWPOLYLINE
5
109
100
AcDbEntity
8
0
100
AcDbPolyline
90
4
70
1
43
0.0
10
-0.48749999999999888
20
14.300000000000001
10
-0.68749999999999845
20
14.300000000000001
10
-0.68749999999999845
20
14.699999999999999
10
-0.48749999999999888
20
14.699999999999999
0
LWPOLYLINE
5
110
100
AcDbEntity
8
0
100
AcDbPolyline
90
4
70
1
43
0.0
10
-0.48749999999999888
20
10.550000000000002
10
-0.68749999999999845
20
10.550000000000002
10
-0.68749999999999845
20
10.950000000000001
10
-0.48749999999999888
20
10.950000000000001
0
LWPOLYLINE
5
111
100
AcDbEntity
8
0
100
AcDbPolyline
90
4
70
1
43
0.0
10
-0.48750000000000027
20
6.8000000000000016
10
-0.68749999999999989
20
6.8000000000000016
10
-0.68749999999999989
20
7.200000000000002
10
-0.48750000000000027
20
7.200000000000002
0
LWPOLYLINE
5
112
100
AcDbEntity
8
0
100
AcDbPolyline
90
4
70
1
43
0.0
10
-0.48750000000000027
20
3.0500000000000016
10
-0.68749999999999989
20
3.0500000000000016
10
-0.68749999999999989
20
3.4500000000000011
10
-0.48750000000000027
20
3.4500000000000011
0
LWPOLYLINE
5
113
100
AcDbEntity
8
0
100
AcDbPolyline
90
4
70
1
43
0.0
10
-0.48750000000000027
20
-0.70000000000000162
10
-0.68749999999999989
20
-0.70000000000000151
10
-0.68749999999999989
20
-0.30000000000000088
10
-0.48750000000000027
20
-0.30000000000000088
0
LWPOLYLINE
5
114
100
AcDbEntity
8
0
100
AcDbPolyline
90
4
70
1
43
0.0
10
0.66250000000000153
20
-0.49999999999999839
10
0.66250000000000153
20
-0.6999999999999994
10
0.26250000000000151
20
-0.6999999999999994
10
0.26250000000000151
20
-0.49999999999999839
0
LWPOLYLINE
5
115
100
AcDbEntity
8
0
100
AcDbPolyline
90
4
70
1
43
0.0
10
4.1370078740157483
20
-0.49999999999999839
10
4.1370078740157483
20
-0.6999999999999994
10
3.7370078740157489
20
-0.6999999999999994
10
3.7370078740157489
20
-0.49999999999999839
0
LWPOLYLINE
5
116
100
AcDbEntity
8
0
100
AcDbPolyline
90
4
70
1
43
0.0
10
7.6115157480314952
20
-0.49999999999999839
10
7.6115157480314952
20
-0.6999999999999994
10
7.2115157480314958
20
-0.6999999999999994
10
7.2115157480314958
20
-0.49999999999999839
0
CIRCLE
5
117
100
AcDbEntity
8
0
100
AcDbCircle
10
8.4615157480314931
20
5.1250000000000018
30
0
40
0.056499999999999655
210
0
220
0
230
1
0
CIRCLE
5
118
100
AcDbEntity
8
0
100
AcDbCircle
10
-0.58749999999999869
20
1.3750000000000027
30
0
40
0.056499999999999655
210
0
220
0
230
1
0
CIRCLE
5
119
100
AcDbEntity
8
0
100
AcDbCircle
10
5.674261811023622
20
-0.60000000000000031
30
0
40
0.056499999999999655
210
0
220
0
230
1
0
CIRCLE
5
120
100
AcDbEntity
8
0
100
AcDbCircle
10
8.4615157480314949
20
1.3750000000000027
30
0
40
0.056499999999999655
210
0
220
0
230
1
0
CIRCLE
5
121
100
AcDbEntity
8
0
100
AcDbCircle
10
-0.58749999999999869
20
5.1250000000000018
30
0
40
0.056499999999999655
210
0
220
0
230
1
0
CIRCLE
5
122
100
AcDbEntity
8
0
100
AcDbCircle
10
2.1997539370078751
20
-0.60000000000000031
30
0
40
0.056500000000000009
210
0
220
0
230
1
0
CIRCLE
5
123
100
AcDbEntity
8
0
100
AcDbCircle
10
8.4615157480314931
20
8.875
30
0
40
0.056499999999999655
210
0
220
0
230
1
0
CIRCLE
5
124
100
AcDbEntity
8
0
100
AcDbCircle
10
-0.58749999999999869
20
12.625
30
0
40
0.056499999999999655
210
0
220
0
230
1
0
CIRCLE
5
125
100
AcDbEntity
8
0
100
AcDbCircle
10
5.674261811023622
20
14.6
30
0
40
0.056499999999999655
210
0
220
0
230
1
0
CIRCLE
5
126
100
AcDbEntity
8
0
100
AcDbCircle
10
8.4615157480314949
20
12.625
30
0
40
0.056499999999999655
210
0
220
0
230
1
0
CIRCLE
5
127
100
AcDbEntity
8
0
100
AcDbCircle
10
-0.58749999999999869
20
8.875
30
0
40
0.056499999999999655
210
0
220
0
230
1
0
CIRCLE
5
128
100
AcDbEntity
8
0
100
AcDbCircle
10
2.1997539370078751
20
14.6
30
0
40
0.056500000000000009
210
0
220
0
230
1
0
LINE
5
129
100
AcDbEntity
8
0
100
AcDbLine
10
8.2490157480314981
20
3.3506844641060949e-16
30
0
11
-0.37500000000000017
21
0
31
0
0
LINE
5
130
100
AcDbEntity
8
0
100
AcDbLine
10
-0.37500000000000017
20
0
30
0
11
-0.375
21
0.24999999999999997
31
0
0
LINE
5
131
100
AcDbEntity
8
0
100
AcDbLine
10
-0.375
20
0.24999999999999997
30
0
11
0
21
0.24999999999999997
31
0
0
LINE
5
132
100
AcDbEntity
8
0
100
AcDbLine
10
0
20
0.24999999999999997
30
0
11
0
21
0.49999999999999994
31
0
0
LINE
5
133
100
AcDbEntity
8
0
100
AcDbLine
10
0
20
0.49999999999999994
30
0
11
-0.375
21
0.49999999999999994
31
0
0
LINE
5
134
100
AcDbEntity
8
0
100
AcDbLine
10
-0.375
20
0.49999999999999994
30
0
11
-0.375
21
0.75
31
0
0
LINE
5
135
100
AcDbEntity
8
0
100
AcDbLine
10
-0.375
20
0.75
30
0
11
0
21
0.75
31
0
0
LINE
5
136
100
AcDbEntity
8
0
100
AcDbLine
10
0
20
0.75
30
0
11
0
21
0.99999999999999989
31
0
0
LINE
5
137
100
AcDbEntity
8
0
100
AcDbLine
10
0
20
0.99999999999999989
30
0
11
-0.375
21
0.99999999999999989
31
0
0
LINE
5
138
100
AcDbEntity
8
0
100
AcDbLine
10
-0.375
20
0.99999999999999989
30
0
11
-0.375
21
1.2499999999999998
31
0
0
LINE
5
139
100
AcDbEntity
8
0
100
AcDbLine
10
-0.375
20
1.2499999999999998
30
0
11
0
21
1.2499999999999998
31
0
0
LINE
5
140
100
AcDbEntity
8
0
100
AcDbLine
10
0
20
1.2499999999999998
30
0
11
0
21
1.5
31
0
0
LINE
5
141
100
AcDbEntity
8
0
100
AcDbLine
10
0
20
1.5
30
0
11
-0.375
21
1.5
31
0
0
LINE
5
142
100
AcDbEntity
8
0
100
AcDbLine
10
-0.375
20
1.5
30
0
11
-0.375
21
1.75
31
0
0
LINE
5
143
100
AcDbEntity
8
0
100
AcDbLine
10
-0.375
20
1.75
30
0
11
0
21
1.75
31
0
0
LINE
5
144
100
AcDbEntity
8
0
100
AcDbLine
10
0
20
1.75
30
0
11
0
21
1.9999999999999998
31
0
0
LINE
5
145
100
AcDbEntity
8
0
100
AcDbLine
10
0
20
1.9999999999999998
30
0
11
-0.375
21
1.9999999999999998
31
0
0
LINE
5
146
100
AcDbEntity
8
0
100
AcDbLine
10
-0.375
20
1.9999999999999998
30
0
11
-0.375
21
2.2499999999999996
31
0
0
LINE
5
147
100
AcDbEntity
8
0
100
AcDbLine
10
-0.375
20
2.2499999999999996
30
0
11
0
21
2.2499999999999996
31
0
0
LINE
5
148
100
AcDbEntity
8
0
100
AcDbLine
10
0
20
2.2499999999999996
30
0
11
0
21
2.4999999999999996
31
0
0
LINE
5
149
100
AcDbEntity
8
0
100
AcDbLine
10
0
20
2.4999999999999996
30
0
11
-0.375
21
2.4999999999999996
31
0
0
LINE
5
150
100
AcDbEntity
8
0
100
AcDbLine
10
-0.375
20
2.4999999999999996
30
0
11
-0.375
21
2.7499999999999996
31
0
0
LINE
5
151
100
AcDbEntity
8
0
100
AcDbLine
10
-0.375
20
2.7499999999999996
30
0
11
0
21
2.7499999999999996
31
0
0
LINE
5
152
100
AcDbEntity
8
0
100
AcDbLine
10
0
20
2.7499999999999996
30
0
11
0
21
3
31
0
0
LINE
5
153
100
AcDbEntity
8
0
100
AcDbLine
10
0
20
3
30
0
11
-0.375
21
3
31
0
0
LINE
5
154
100
AcDbEntity
8
0
100
AcDbLine
10
-0.375
20
3
30
0
11
-0.375
21
3.25
31
0
0
LINE
5
155
100
AcDbEntity
8
0
100
AcDbLine
10
-0.375
20
3.25
30
0
11
0
21
3.25
31
0
0
LINE
5
156
100
AcDbEntity
8
0
100
AcDbLine
10
0
20
3.25
30
0
11
0
21
3.5
31
0
0
LINE
5
157
100
AcDbEntity
8
0
100
AcDbLine
10
0
20
3.5
30
0
11
-0.375
21
3.5
31
0
0
LINE
5
158
100
AcDbEntity
8
0
100
AcDbLine
10
-0.375
20
3.5
30
0
11
-0.375
21
3.75
31
0
0
LINE
5
159
100
AcDbEntity
8
0
100
AcDbLine
10
-0.375
20
3.75
30
0
11
0
21
3.75
31
0
0
LINE
5
160
100
AcDbEntity
8
0
100
AcDbLine
10
0
20
3.75
30
0
11
0
21
3.9999999999999996
31
0
0
LINE
5
161
100
AcDbEntity
8
0
100
AcDbLine
10
0
20
3.9999999999999996
30
0
11
-0.375
21
3.9999999999999996
31
0
0
LINE
5
162
100
AcDbEntity
8
0
100
AcDbLine
10
-0.375
20
3.9999999999999996
30
0
11
-0.375
21
4.25
31
0
0
LINE
5
163
100
AcDbEntity
8
0
100
AcDbLine
10
-0.375
20
4.25
30
0
11
0
21
4.25
31
0
0
LINE
5
164
100
AcDbEntity
8
0
100
AcDbLine
10
0
20
4.25
30
0
11
0
21
4.4999999999999991
31
0
0
LINE
5
165
100
AcDbEntity
8
0
100
AcDbLine
10
0
20
4.4999999999999991
30
0
11
-0.375
21
4.4999999999999991
31
0
0
LINE
5
166
100
AcDbEntity
8
0
100
AcDbLine
10
-0.375
20
4.4999999999999991
30
0
11
-0.375
21
4.7499999999999991
31
0
0
LINE
5
167
100
AcDbEntity
8
0
100
AcDbLine
10
-0.375
20
4.7499999999999991
30
0
11
0
21
4.7499999999999991
31
0
0
LINE
5
168
100
AcDbEntity
8
0
100
AcDbLine
10
0
20
4.7499999999999991
30
0
11
0
21
4.9999999999999991
31
0
0
LINE
5
169
100
AcDbEntity
8
0
100
AcDbLine
10
0
20
4.9999999999999991
30
0
11
-0.375
21
4.9999999999999991
31
0
0
LINE
5
170
100
AcDbEntity
8
0
100
AcDbLine
10
-0.375
20
4.9999999999999991
30
0
11
-0.375
21
5.2499999999999991
31
0
0
LINE
5
171
100
AcDbEntity
8
0
100
AcDbLine
10
-0.375
20
5.2499999999999991
30
0
11
0
21
5.2499999999999991
31
0
0
LINE
5
172
100
AcDbEntity
8
0
100
AcDbLine
10
0
20
5.2499999999999991
30
0
11
0
21
5.5
31
0
0
LINE
5
173
100
AcDbEntity
8
0
100
AcDbLine
10
0
20
5.5
30
0
11
-0.375
21
5.5
31
0
0
LINE
5
174
100
AcDbEntity
8
0
100
AcDbLine
10
-0.375
20
5.5
30
0
11
-0.375
21
5.75
31
0
0
LINE
5
175
100
AcDbEntity
8
0
100
AcDbLine
10
-0.375
20
5.75
30
0
11
0
21
5.75
31
0
0
LINE
5
176
100
AcDbEntity
8
0
100
AcDbLine
10
0
20
5.75
30
0
11
0
21
6
31
0
0
LINE
5
177
100
AcDbEntity
8
0
100
AcDbLine
10
0
20
6
30
0
11
-0.375
21
6
31
0
0
LINE
5
178
100
AcDbEntity
8
0
100
AcDbLine
10
-0.375
20
6
30
0
11
-0.375
21
6.2499999999999991
31
0
0
LINE
5
179
100
AcDbEntity
8
0
100
AcDbLine
10
-0.375
20
6.2499999999999991
30
0
11
0
21
6.2499999999999991
31
0
0
LINE
5
180
100
AcDbEntity
8
0
100
AcDbLine
10
0
20
6.2499999999999991
30
0
11
0
21
6.5
31
0
0
LINE
5
181
100
AcDbEntity
8
0
100
AcDbLine
10
0
20
6.5
30
0
11
-0.375
21
6.5
31
0
0
LINE
5
182
100
AcDbEntity
8
0
100
AcDbLine
10
-0.375
20
6.5
30
0
11
-0.375
21
6.7500000000000009
31
0
0
LINE
5
183
100
AcDbEntity
8
0
100
AcDbLine
10
-0.375
20
6.7500000000000009
30
0
11
0
21
6.7500000000000009
31
0
0
LINE
5
184
100
AcDbEntity
8
0
100
AcDbLine
10
0
20
6.7500000000000009
30
0
11
0
21
7
31
0
0
LINE
5
185
100
AcDbEntity
8
0
100
AcDbLine
10
0
20
7
30
0
11
-0.375
21
7
31
0
0
LINE
5
186
100
AcDbEntity
8
0
100
AcDbLine
10
-0.375
20
7
30
0
11
-0.375
21
7.2500000000000009
31
0
0
LINE
5
187
100
AcDbEntity
8
0
100
AcDbLine
10
-0.375
20
7.2500000000000009
30
0
11
0
21
7.2500000000000009
31
0
0
LINE
5
188
100
AcDbEntity
8
0
100
AcDbLine
10
0
20
7.2500000000000009
30
0
11
0
21
7.5
31
0
0
LINE
5
189
100
AcDbEntity
8
0
100
AcDbLine
10
0
20
7.5
30
0
11
-0.375
21
7.5
31
0
0
LINE
5
190
100
AcDbEntity
8
0
100
AcDbLine
10
-0.375
20
7.5
30
0
11
-0.375
21
7.75
31
0
0
LINE
5
191
100
AcDbEntity
8
0
100
AcDbLine
10
-0.375
20
7.75
30
0
11
0
21
7.75
31
0
0
LINE
5
192
100
AcDbEntity
8
0
100
AcDbLine
10
0
20
7.75
30
0
11
0
21
7.9999999999999991
31
0
0
LINE
5
193
100
AcDbEntity
8
0
100
AcDbLine
10
0
20
7.9999999999999991
30
0
11
-0.375
21
7.9999999999999991
31
0
0
LINE
5
194
100
AcDbEntity
8
0
100
AcDbLine
10
-0.375
20
7.9999999999999991
30
0
11
-0.375
21
8.25
31
0
0
LINE
5
195
100
AcDbEntity
8
0
100
AcDbLine
10
-0.375
20
8.25
30
0
11
0
21
8.25
31
0
0
LINE
5
196
100
AcDbEntity
8
0
100
AcDbLine
10
0
20
8.25
30
0
11
0
21
8.5
31
0
0
LINE
5
197
100
AcDbEntity
8
0
100
AcDbLine
10
0
20
8.5
30
0
11
-0.375
21
8.5
31
0
0
LINE
5
198
100
AcDbEntity
8
0
100
AcDbLine
10
-0.375
20
8.5
30
0
11
-0.375
21
8.75
31
0
0
LINE
5
199
100
AcDbEntity
8
0
100
AcDbLine
10
-0.375
20
8.75
30
0
11
0
21
8.75
31
0
0
LINE
5
200
100
AcDbEntity
8
0
100
AcDbLine
10
0
20
8.75
30
0
11
0
21
8.9999999999999982
31
0
0
LINE
5
201
100
AcDbEntity
8
0
100
AcDbLine
10
0
20
8.9999999999999982
30
0
11
-0.375
21
8.9999999999999982
31
0
0
LINE
5
202
100
AcDbEntity
8
0
100
AcDbLine
10
-0.375
20
8.9999999999999982
30
0
11
-0.375
21
9.25
31
0
0
LINE
5
203
100
AcDbEntity
8
0
100
AcDbLine
10
-0.375
20
9.25
30
0
11
0
21
9.25
31
0
0
LINE
5
204
100
AcDbEntity
8
0
100
AcDbLine
10
0
20
9.25
30
0
11
0
21
9.4999999999999982
31
0
0
LINE
5
205
100
AcDbEntity
8
0
100
AcDbLine
10
0
20
9.4999999999999982
30
0
11
-0.375
21
9.4999999999999982
31
0
0
LINE
5
206
100
AcDbEntity
8
0
100
AcDbLine
10
-0.375
20
9.4999999999999982
30
0
11
-0.375
21
9.75
31
0
0
LINE
5
207
100
AcDbEntity
8
0
100
AcDbLine
10
-0.375
20
9.75
30
0
11
0
21
9.75
31
0
0
LINE
5
208
100
AcDbEntity
8
0
100
AcDbLine
10
0
20
9.75
30
0
11
0
21
9.9999999999999982
31
0
0
LINE
5
209
100
AcDbEntity
8
0
100
AcDbLine
10
0
20
9.9999999999999982
30
0
11
-0.375
21
9.9999999999999982
31
0
0
LINE
5
210
100
AcDbEntity
8
0
100
AcDbLine
10
-0.375
20
9.9999999999999982
30
0
11
-0.375
21
10.25
31
0
0
LINE
5
211
100
AcDbEntity
8
0
100
AcDbLine
10
-0.375
20
10.25
30
0
11
0
21
10.25
31
0
0
LINE
5
212
100
AcDbEntity
8
0
100
AcDbLine
10
0
20
10.25
30
0
11
0
21
10.5
31
0
0
LINE
5
213
100
AcDbEntity
8
0
100
AcDbLine
10
0
20
10.5
30
0
11
-0.375
21
10.5
31
0
0
LINE
5
214
100
AcDbEntity
8
0
100
AcDbLine
10
-0.375
20
10.5
30
0
11
-0.375
21
10.75
31
0
0
LINE
5
215
100
AcDbEntity
8
0
100
AcDbLine
10
-0.375
20
10.75
30
0
11
0
21
10.75
31
0
0
LINE
5
216
100
AcDbEntity
8
0
100
AcDbLine
10
0
20
10.75
30
0
11
0
21
11
31
0
0
LINE
5
217
100
AcDbEntity
8
0
100
AcDbLine
10
0
20
11
30
0
11
-0.375
21
11
31
0
0
LINE
5
218
100
AcDbEntity
8
0
100
AcDbLine
10
-0.375
20
11
30
0
11
-0.375
21
11.25
31
0
0
LINE
5
219
100
AcDbEntity
8
0
100
AcDbLine
10
-0.375
20
11.25
30
0
11
0
21
11.25
31
0
0
LINE
5
220
100
AcDbEntity
8
0
100
AcDbLine
10
0
20
11.25
30
0
11
0
21
11.5
31
0
0
LINE
5
221
100
AcDbEntity
8
0
100
AcDbLine
10
0
20
11.5
30
0
11
-0.375
21
11.5
31
0
0
LINE
5
222
100
AcDbEntity
8
0
100
AcDbLine
10
-0.375
20
11.5
30
0
11
-0.375
21
11.75
31
0
0
LINE
5
223
100
AcDbEntity
8
0
100
AcDbLine
10
-0.375
20
11.75
30
0
11
0
21
11.75
31
0
0
LINE
5
224
100
AcDbEntity
8
0
100
AcDbLine
10
0
20
11.75
30
0
11
0
21
12
31
0
0
LINE
5
225
100
AcDbEntity
8
0
100
AcDbLine
10
0
20
12
30
0
11
-0.375
21
12
31
0
0
LINE
5
226
100
AcDbEntity
8
0
100
AcDbLine
10
-0.375
20
12
30
0
11
-0.375
21
12.25
31
0
0
LINE
5
227
100
AcDbEntity
8
0
100
AcDbLine
10
-0.375
20
12.25
30
0
11
0
21
12.25
31
0
0
LINE
5
228
100
AcDbEntity
8
0
100
AcDbLine
10
0
20
12.25
30
0
11
0
21
12.499999999999998
31
0
0
LINE
5
229
100
AcDbEntity
8
0
100
AcDbLine
10
0
20
12.499999999999998
30
0
11
-0.375
21
12.499999999999998
31
0
0
LINE
5
230
100
AcDbEntity
8
0
100
AcDbLine
10
-0.375
20
12.499999999999998
30
0
11
-0.375
21
12.749999999999998
31
0
0
LINE
5
231
100
AcDbEntity
8
0
100
AcDbLine
10
-0.375
20
12.749999999999998
30
0
11
0
21
12.749999999999998
31
0
0
LINE
5
232
100
AcDbEntity
8
0
100
AcDbLine
10
0
20
12.749999999999998
30
0
11
0
21
13
31
0
0
LINE
5
233
100
AcDbEntity
8
0
100
AcDbLine
10
0
20
13
30
0
11
-0.375
21
13
31
0
0
LINE
5
234
100
AcDbEntity
8
0
100
AcDbLine
10
-0.375
20
13
30
0
11
-0.375
21
13.25
31
0
0
LINE
5
235
100
AcDbEntity
8
0
100
AcDbLine
10
-0.375
20
13.25
30
0
11
0
21
13.25
31
0
0
LINE
5
236
100
AcDbEntity
8
0
100
AcDbLine
10
0
20
13.25
30
0
11
0
21
13.499999999999998
31
0
0
LINE
5
237
100
AcDbEntity
8
0
100
AcDbLine
10
0
20
13.499999999999998
30
0
11
-0.375
21
13.499999999999998
31
0
0
LINE
5
238
100
AcDbEntity
8
0
100
AcDbLine
10
-0.375
20
13.499999999999998
30
0
11
-0.375
21
13.749999999999998
31
0
0
LINE
5
239
100
AcDbEntity
8
0
100
AcDbLine
10
-0.375
20
13.749999999999998
30
0
11
0
21
13.749999999999998
31
0
0
LINE
5
240
100
AcDbEntity
8
0
100
AcDbLine
10
0
20
13.749999999999998
30
0
11
0
21
14
31
0
0
LINE
5
241
100
AcDbEntity
8
0
100
AcDbLine
10
0
20
14
30
0
11
7.8740157480314954
21
14
31
0
0
LINE
5
242
100
AcDbEntity
8
0
100
AcDbLine
10
7.8740157480314954
20
14
30
0
11
7.8740157480314954
21
13.749999999999998
31
0
0
LINE
5
243
100
AcDbEntity
8
0
100
AcDbLine
10
7.8740157480314954
20
13.749999999999998
30
0
11
8.2490157480314963
21
13.749999999999998
31
0
0
LINE
5
244
100
AcDbEntity
8
0
100
AcDbLine
10
8.2490157480314963
20
13.749999999999998
30
0
11
8.2490157480314963
21
13.499999999999998
31
0
0
LINE
5
245
100
AcDbEntity
8
0
100
AcDbLine
10
8.2490157480314963
20
13.499999999999998
30
0
11
7.8740157480314954
21
13.499999999999998
31
0
0
LINE
5
246
100
AcDbEntity
8
0
100
AcDbLine
10
7.8740157480314954
20
13.499999999999998
30
0
11
7.8740157480314954
21
13.25
31
0
0
LINE
5
247
100
AcDbEntity
8
0
100
AcDbLine
10
7.8740157480314954
20
13.25
30
0
11
8.2490157480314963
21
13.25
31
0
0
LINE
5
248
100
AcDbEntity
8
0
100
AcDbLine
10
8.2490157480314963
20
13.25
30
0
11
8.2490157480314963
21
13
31
0
0
LINE
5
249
100
AcDbEntity
8
0
100
AcDbLine
10
8.2490157480314963
20
13
30
0
11
7.8740157480314954
21
13
31
0
0
LINE
5
250
100
AcDbEntity
8
0
100
AcDbLine
10
7.8740157480314954
20
13
30
0
11
7.8740157480314954
21
12.749999999999998
31
0
0
LINE
5
251
100
AcDbEntity
8
0
100
AcDbLine
10
7.8740157480314954
20
12.749999999999998
30
0
11
8.2490157480314963
21
12.749999999999998
31
0
0
LINE
5
252
100
AcDbEntity
8
0
100
AcDbLine
10
8.2490157480314963
20
12.749999999999998
30
0
11
8.2490157480314963
21
12.499999999999998
31
0
0
LINE
5
253
100
AcDbEntity
8
0
100
AcDbLine
10
8.2490157480314963
20
12.499999999999998
30
0
11
7.8740157480314954
21
12.499999999999998
31
0
0
LINE
5
254
100
AcDbEntity
8
0
100
AcDbLine
10
7.8740157480314954
20
12.499999999999998
30
0
11
7.8740157480314954
21
12.25
31
0
0
LINE
5
255
100
AcDbEntity
8
0
100
AcDbLine
10
7.8740157480314954
20
12.25
30
0
11
8.2490157480314963
21
12.25
31
0
0
LINE
5
256
100
AcDbEntity
8
0
100
AcDbLine
10
8.2490157480314963
20
12.25
30
0
11
8.2490157480314963
21
12
31
0
0
LINE
5
257
100
AcDbEntity
8
0
100
AcDbLine
10
8.2490157480314963
20
12
30
0
11
7.8740157480314954
21
12
31
0
0
LINE
5
258
100
AcDbEntity
8
0
100
AcDbLine
10
7.8740157480314954
20
12
30
0
11
7.8740157480314954
21
11.75
31
0
0
LINE
5
259
100
AcDbEntity
8
0
100
AcDbLine
10
7.8740157480314954
20
11.75
30
0
11
8.2490157480314963
21
11.75
31
0
0
LINE
5
260
100
AcDbEntity
8
0
100
AcDbLine
10
8.2490157480314963
20
11.75
30
0
11
8.2490157480314963
21
11.5
31
0
0
LINE
5
261
100
AcDbEntity
8
0
100
AcDbLine
10
8.2490157480314963
20
11.5
30
0
11
7.8740157480314954
21
11.5
31
0
0
LINE
5
262
100
AcDbEntity
8
0
100
AcDbLine
10
7.8740157480314954
20
11.5
30
0
11
7.8740157480314954
21
11.25
31
0
0
LINE
5
263
100
AcDbEntity
8
0
100
AcDbLine
10
7.8740157480314954
20
11.25
30
0
11
8.2490157480314963
21
11.25
31
0
0
LINE
5
264
100
AcDbEntity
8
0
100
AcDbLine
10
8.2490157480314963
20
11.25
30
0
11
8.2490157480314963
21
11
31
0
0
LINE
5
265
100
AcDbEntity
8
0
100
AcDbLine
10
8.2490157480314963
20
11
30
0
11
7.8740157480314954
21
11
31
0
0
LINE
5
266
100
AcDbEntity
8
0
100
AcDbLine
10
7.8740157480314954
20
11
30
0
11
7.8740157480314954
21
10.75
31
0
0
LINE
5
267
100
AcDbEntity
8
0
100
AcDbLine
10
7.8740157480314954
20
10.75
30
0
11
8.2490157480314963
21
10.75
31
0
0
LINE
5
268
100
AcDbEntity
8
0
100
AcDbLine
10
8.2490157480314963
20
10.75
30
0
11
8.2490157480314963
21
10.5
31
0
0
LINE
5
269
100
AcDbEntity
8
0
100
AcDbLine
10
8.2490157480314963
20
10.5
30
0
11
7.8740157480314954
21
10.5
31
0
0
LINE
5
270
100
AcDbEntity
8
0
100
AcDbLine
10
7.8740157480314954
20
10.5
30
0
11
7.8740157480314972
21
10.25
31
0
0
LINE
5
271
100
AcDbEntity
8
0
100
AcDbLine
10
7.8740157480314972
20
10.25
30
0
11
8.2490157480314963
21
10.25
31
0
0
LINE
5
272
100
AcDbEntity
8
0
100
AcDbLine
10
8.2490157480314963
20
10.25
30
0
11
8.2490157480314963
21
9.9999999999999982
31
0
0
LINE
5
273
100
AcDbEntity
8
0
100
AcDbLine
10
8.2490157480314963
20
9.9999999999999982
30
0
11
7.8740157480314972
21
9.9999999999999982
31
0
0
LINE
5
274
100
AcDbEntity
8
0
100
AcDbLine
10
7.8740157480314972
20
9.9999999999999982
30
0
11
7.8740157480314972
21
9.75
31
0
0
LINE
5
275
100
AcDbEntity
8
0
100
AcDbLine
10
7.8740157480314972
20
9.75
30
0
11
8.2490157480314963
21
9.75
31
0
0
LINE
5
276
100
AcDbEntity
8
0
100
AcDbLine
10
8.2490157480314963
20
9.75
30
0
11
8.2490157480314963
21
9.4999999999999982
31
0
0
LINE
5
277
100
AcDbEntity
8
0
100
AcDbLine
10
8.2490157480314963
20
9.4999999999999982
30
0
11
7.8740157480314972
21
9.4999999999999982
31
0
0
LINE
5
278
100
AcDbEntity
8
0
100
AcDbLine
10
7.8740157480314972
20
9.4999999999999982
30
0
11
7.8740157480314972
21
9.25
31
0
0
LINE
5
279
100
AcDbEntity
8
0
100
AcDbLine
10
7.8740157480314972
20
9.25
30
0
11
8.2490157480314963
21
9.25
31
0
0
LINE
5
280
100
AcDbEntity
8
0
100
AcDbLine
10
8.2490157480314963
20
9.25
30
0
11
8.2490157480314963
21
8.9999999999999982
31
0
0
LINE
5
281
100
AcDbEntity
8
0
100
AcDbLine
10
8.2490157480314963
20
8.9999999999999982
30
0
11
7.8740157480314972
21
8.9999999999999982
31
0
0
LINE
5
282
100
AcDbEntity
8
0
100
AcDbLine
10
7.8740157480314972
20
8.9999999999999982
30
0
11
7.8740157480314972
21
8.75
31
0
0
LINE
5
283
100
AcDbEntity
8
0
100
AcDbLine
10
7.8740157480314972
20
8.75
30
0
11
8.2490157480314963
21
8.75
31
0
0
LINE
5
284
100
AcDbEntity
8
0
100
AcDbLine
10
8.2490157480314963
20
8.75
30
0
11
8.2490157480314963
21
8.5
31
0
0
LINE
5
285
100
AcDbEntity
8
0
100
AcDbLine
10
8.2490157480314963
20
8.5
30
0
11
7.8740157480314972
21
8.5
31
0
0
LINE
5
286
100
AcDbEntity
8
0
100
AcDbLine
10
7.8740157480314972
20
8.5
30
0
11
7.8740157480314972
21
8.25
31
0
0
LINE
5
287
100
AcDbEntity
8
0
100
AcDbLine
10
7.8740157480314972
20
8.25
30
0
11
8.2490157480314963
21
8.25
31
0
0
LINE
5
288
100
AcDbEntity
8
0
100
AcDbLine
10
8.2490157480314963
20
8.25
30
0
11
8.2490157480314963
21
7.9999999999999991
31
0
0
LINE
5
289
100
AcDbEntity
8
0
100
AcDbLine
10
8.2490157480314963
20
7.9999999999999991
30
0
11
7.8740157480314972
21
7.9999999999999991
31
0
0
LINE
5
290
100
AcDbEntity
8
0
100
AcDbLine
10
7.8740157480314972
20
7.9999999999999991
30
0
11
7.8740157480314981
21
7.75
31
0
0
LINE
5
291
100
AcDbEntity
8
0
100
AcDbLine
10
7.8740157480314981
20
7.75
30
0
11
8.2490157480314981
21
7.75
31
0
0
LINE
5
292
100
AcDbEntity
8
0
100
AcDbLine
10
8.2490157480314981
20
7.75
30
0
11
8.2490157480314981
21
7.5
31
0
0
LINE
5
293
100
AcDbEntity
8
0
100
AcDbLine
10
8.2490157480314981
20
7.5
30
0
11
7.8740157480314981
21
7.5
31
0
0
LINE
5
294
100
AcDbEntity
8
0
100
AcDbLine
10
7.8740157480314981
20
7.5
30
0
11
7.8740157480314981
21
7.2500000000000009
31
0
0
LINE
5
295
100
AcDbEntity
8
0
100
AcDbLine
10
7.8740157480314981
20
7.2500000000000009
30
0
11
8.2490157480314981
21
7.2500000000000009
31
0
0
LINE
5
296
100
AcDbEntity
8
0
100
AcDbLine
10
8.2490157480314981
20
7.2500000000000009
30
0
11
8.2490157480314981
21
7
31
0
0
LINE
5
297
100
AcDbEntity
8
0
100
AcDbLine
10
8.2490157480314981
20
7
30
0
11
7.8740157480314981
21
7
31
0
0
LINE
5
298
100
AcDbEntity
8
0
100
AcDbLine
10
7.8740157480314981
20
7
30
0
11
7.8740157480314981
21
6.7500000000000009
31
0
0
LINE
5
299
100
AcDbEntity
8
0
100
AcDbLine
10
7.8740157480314981
20
6.7500000000000009
30
0
11
8.2490157480314981
21
6.7500000000000009
31
0
0
LINE
5
300
100
AcDbEntity
8
0
100
AcDbLine
10
8.2490157480314981
20
6.7500000000000009
30
0
11
8.2490157480314981
21
6.5
31
0
0
LINE
5
301
100
AcDbEntity
8
0
100
AcDbLine
10
8.2490157480314981
20
6.5
30
0
11
7.8740157480314981
21
6.5
31
0
0
LINE
5
302
100
AcDbEntity
8
0
100
AcDbLine
10
7.8740157480314981
20
6.5
30
0
11
7.8740157480314981
21
6.2499999999999991
31
0
0
LINE
5
303
100
AcDbEntity
8
0
100
AcDbLine
10
7.8740157480314981
20
6.2499999999999991
30
0
11
8.2490157480314981
21
6.2499999999999991
31
0
0
LINE
5
304
100
AcDbEntity
8
0
100
AcDbLine
10
8.2490157480314981
20
6.2499999999999991
30
0
11
8.2490157480314981
21
6
31
0
0
LINE
5
305
100
AcDbEntity
8
0
100
AcDbLine
10
8.2490157480314981
20
6
30
0
11
7.8740157480314981
21
6
31
0
0
LINE
5
306
100
AcDbEntity
8
0
100
AcDbLine
10
7.8740157480314981
20
6
30
0
11
7.8740157480314981
21
5.75
31
0
0
LINE
5
307
100
AcDbEntity
8
0
100
AcDbLine
10
7.8740157480314981
20
5.75
30
0
11
8.2490157480314981
21
5.75
31
0
0
LINE
5
308
100
AcDbEntity
8
0
100
AcDbLine
10
8.2490157480314981
20
5.75
30
0
11
8.2490157480314981
21
5.5
31
0
0
LINE
5
309
100
AcDbEntity
8
0
100
AcDbLine
10
8.2490157480314981
20
5.5
30
0
11
7.8740157480314981
21
5.5
31
0
0
LINE
5
310
100
AcDbEntity
8
0
100
AcDbLine
10
7.8740157480314981
20
5.5
30
0
11
7.8740157480314981
21
5.2499999999999991
31
0
0
LINE
5
311
100
AcDbEntity
8
0
100
AcDbLine
10
7.8740157480314981
20
5.2499999999999991
30
0
11
8.2490157480314981
21
5.2499999999999991
31
0
0
LINE
5
312
100
AcDbEntity
8
0
100
AcDbLine
10
8.2490157480314981
20
5.2499999999999991
30
0
11
8.2490157480314981
21
4.9999999999999991
31
0
0
LINE
5
313
100
AcDbEntity
8
0
100
AcDbLine
10
8.2490157480314981
20
4.9999999999999991
30
0
11
7.8740157480314981
21
4.9999999999999991
31
0
0
LINE
5
314
100
AcDbEntity
8
0
100
AcDbLine
10
7.8740157480314981
20
4.9999999999999991
30
0
11
7.8740157480314981
21
4.7499999999999991
31
0
0
LINE
5
315
100
AcDbEntity
8
0
100
AcDbLine
10
7.8740157480314981
20
4.7499999999999991
30
0
11
8.2490157480314981
21
4.7499999999999991
31
0
0
LINE
5
316
100
AcDbEntity
8
0
100
AcDbLine
10
8.2490157480314981
20
4.7499999999999991
30
0
11
8.2490157480314981
21
4.4999999999999991
31
0
0
LINE
5
317
100
AcDbEntity
8
0
100
AcDbLine
10
8.2490157480314981
20
4.4999999999999991
30
0
11
7.8740157480314981
21
4.4999999999999991
31
0
0
LINE
5
318
100
AcDbEntity
8
0
100
AcDbLine
10
7.8740157480314981
20
4.4999999999999991
30
0
11
7.8740157480314981
21
4.25
31
0
0
LINE
5
319
100
AcDbEntity
8
0
100
AcDbLine
10
7.8740157480314981
20
4.25
30
0
11
8.2490157480314981
21
4.25
31
0
0
LINE
5
320
100
AcDbEntity
8
0
100
AcDbLine
10
8.2490157480314981
20
4.25
30
0
11
8.2490157480314981
21
3.9999999999999996
31
0
0
LINE
5
321
100
AcDbEntity
8
0
100
AcDbLine
10
8.2490157480314981
20
3.9999999999999996
30
0
11
7.8740157480314981
21
3.9999999999999996
31
0
0
LINE
5
322
100
AcDbEntity
8
0
100
AcDbLine
10
7.8740157480314981
20
3.9999999999999996
30
0
11
7.8740157480314981
21
3.75
31
0
0
LINE
5
323
100
AcDbEntity
8
0
100
AcDbLine
10
7.8740157480314981
20
3.75
30
0
11
8.2490157480314981
21
3.75
31
0
0
LINE
5
324
100
AcDbEntity
8
0
100
AcDbLine
10
8.2490157480314981
20
3.75
30
0
11
8.2490157480314981
21
3.5
31
0
0
LINE
5
325
100
AcDbEntity
8
0
100
AcDbLine
10
8.2490157480314981
20
3.5
30
0
11
7.8740157480314981
21
3.5
31
0
0
LINE
5
326
100
AcDbEntity
8
0
100
AcDbLine
10
7.8740157480314981
20
3.5
30
0
11
7.8740157480314981
21
3.25
31
0
0
LINE
5
327
100
AcDbEntity
8
0
100
AcDbLine
10
7.8740157480314981
20
3.25
30
0
11
8.2490157480314981
21
3.25
31
0
0
LINE
5
328
100
AcDbEntity
8
0
100
AcDbLine
10
8.2490157480314981
20
3.25
30
0
11
8.2490157480314981
21
3
31
0
0
LINE
5
329
100
AcDbEntity
8
0
100
AcDbLine
10
8.2490157480314981
20
3
30
0
11
7.8740157480314981
21
3
31
0
0
LINE
5
330
100
AcDbEntity
8
0
100
AcDbLine
10
7.8740157480314981
20
3
30
0
11
7.8740157480314981
21
2.75
31
0
0
LINE
5
331
100
AcDbEntity
8
0
100
AcDbLine
10
7.8740157480314981
20
2.75
30
0
11
8.2490157480314981
21
2.75
31
0
0
LINE
5
332
100
AcDbEntity
8
0
100
AcDbLine
10
8.2490157480314981
20
2.75
30
0
11
8.2490157480314981
21
2.5
31
0
0
LINE
5
333
100
AcDbEntity
8
0
100
AcDbLine
10
8.2490157480314981
20
2.5
30
0
11
7.8740157480314981
21
2.5
31
0
0
LINE
5
334
100
AcDbEntity
8
0
100
AcDbLine
10
7.8740157480314981
20
2.5
30
0
11
7.8740157480314981
21
2.25
31
0
0
LINE
5
335
100
AcDbEntity
8
0
100
AcDbLine
10
7.8740157480314981
20
2.25
30
0
11
8.2490157480314981
21
2.25
31
0
0
LINE
5
336
100
AcDbEntity
8
0
100
AcDbLine
10
8.2490157480314981
20
2.25
30
0
11
8.2490157480314981
21
2
31
0
0
LINE
5
337
100
AcDbEntity
8
0
100
AcDbLine
10
8.2490157480314981
20
2
30
0
11
7.8740157480314981
21
2
31
0
0
LINE
5
338
100
AcDbEntity
8
0
100
AcDbLine
10
7.8740157480314981
20
2
30
0
11
7.8740157480314981
21
1.7500000000000002
31
0
0
LINE
5
339
100
AcDbEntity
8
0
100
AcDbLine
10
7.8740157480314981
20
1.7500000000000002
30
0
11
8.2490157480314981
21
1.7500000000000002
31
0
0
LINE
5
340
100
AcDbEntity
8
0
100
AcDbLine
10
8.2490157480314981
20
1.7500000000000002
30
0
11
8.2490157480314981
21
1.5000000000000002
31
0
0
LINE
5
341
100
AcDbEntity
8
0
100
AcDbLine
10
8.2490157480314981
20
1.5000000000000002
30
0
11
7.8740157480314981
21
1.5000000000000002
31
0
0
LINE
5
342
100
AcDbEntity
8
0
100
AcDbLine
10
7.8740157480314981
20
1.5000000000000002
30
0
11
7.8740157480314981
21
1.2500000000000002
31
0
0
LINE
5
343
100
AcDbEntity
8
0
100
AcDbLine
10
7.8740157480314981
20
1.2500000000000002
30
0
11
8.2490157480314981
21
1.2500000000000002
31
0
0
LINE
5
344
100
AcDbEntity
8
0
100
AcDbLine
10
8.2490157480314981
20
1.2500000000000002
30
0
11
8.2490157480314981
21
1.0000000000000002
31
0
0
LINE
5
345
100
AcDbEntity
8
0
100
AcDbLine
10
8.2490157480314981
20
1.0000000000000002
30
0
11
7.8740157480314981
21
1.0000000000000002
31
0
0
LINE
5
346
100
AcDbEntity
8
0
100
AcDbLine
10
7.8740157480314981
20
1.0000000000000002
30
0
11
7.8740157480314981
21
0.75000000000000022
31
0
0
LINE
5
347
100
AcDbEntity
8
0
100
AcDbLine
10
7.8740157480314981
20
0.75000000000000022
30
0
11
8.2490157480314981
21
0.75000000000000022
31
0
0
LINE
5
348
100
AcDbEntity
8
0
100
AcDbLine
10
8.2490157480314981
20
0.75000000000000022
30
0
11
8.2490157480314981
21
0.50000000000000022
31
0
0
LINE
5
349
100
AcDbEntity
8
0
100
AcDbLine
10
8.2490157480314981
20
0.50000000000000022
30
0
11
7.8740157480314981
21
0.50000000000000022
31
0
0
LINE
5
350
100
AcDbEntity
8
0
100
AcDbLine
10
7.8740157480314981
20
0.50000000000000022
30
0
11
7.8740157480314981
21
0.25000000000000028
31
0
0
LINE
5
351
100
AcDbEntity
8
0
100
AcDbLine
10
7.8740157480314981
20
0.25000000000000028
30
0
11
8.2490157480314981
21
0.25000000000000028
31
0
0
LINE
5
352
100
AcDbEntity
8
0
100
AcDbLine
10
8.2490157480314981
20
0.25000000000000028
30
0
11
8.2490157480314981
21
3.3506844641060949e-16
31
0
0
ENDSEC
0
SECTION
2
OBJECTS
0
DICTIONARY
5
C
100
AcDbDictionary
3
ACAD_GROUP
350
D
3
ACAD_MLINESTYLE
350
17
0
DICTIONARY
5
D
100
AcDbDictionary
0
DICTIONARY
5
1A
330
C
100
AcDbDictionary
0
DICTIONARY
5
17
100
AcDbDictionary
0
ENDSEC
0
EOF
