0
SECTION
2
HEADER
9
$INSUNITS
70
1
9
$ACADVER
1
AC1014
9
$HANDSEED
5
FFFF
0
ENDSEC
0
SECTION
2
TABLES
0
TABLE
2
VPORT
5
8
100
AcDbSymbolTable
0
ENDTAB
0
TABLE
2
LTYPE
5
5
100
AcDbSymbolTable
0
LTYPE
5
14
100
AcDbSymbolTableRecord
100
AcDbLinetypeTableRecord
2
BYBLOCK
70
0
0
LTYPE
5
15
100
AcDbSymbolTableRecord
100
AcDbLinetypeTableRecord
2
BYLAYER
70
0
0
ENDTAB
0
TABLE
2
LAYER
5
2
100
AcDbSymbolTable
70
2
0
LAYER
5
50
100
AcDbSymbolTableRecord
100
AcDbLayerTableRecord
2
0
70
0
6
CONTINUOUS
0
ENDTAB
0
TABLE
2
STYLE
5
3
100
AcDbSymbolTable
70
1
0
STYLE
5
11
100
AcDbSymbolTableRecord
100
AcDbTextStyleTableRecord
2
STANDARD
70
0
0
ENDTAB
0
TABLE
2
VIEW
5
6
100
AcDbSymbolTable
70
0
0
ENDTAB
0
TABLE
2
UCS
5
7
100
AcDbSymbolTable
70
0
0
ENDTAB
0
TABLE
2
APPID
5
9
100
AcDbSymbolTable
70
2
0
APPID
5
12
100
AcDbSymbolTableRecord
100
AcDbRegAppTableRecord
2
ACAD
70
0
0
ENDTAB
0
TABLE
2
DIMSTYLE
5
A
100
AcDbSymbolTable
70
1
0
ENDTAB
0
TABLE
2
BLOCK_RECORD
5
1
100
AcDbSymbolTable
70
1
0
BLOCK_RECORD
5
1F
100
AcDbSymbolTableRecord
100
AcDbBlockTableRecord
2
*MODEL_SPACE
0
BLOCK_RECORD
5
1B
100
AcDbSymbolTableRecord
100
AcDbBlockTableRecord
2
*PAPER_SPACE
0
ENDTAB
0
ENDSEC
0
SECTION
2
BLOCKS
0
BLOCK
5
20
100
AcDbEntity
100
AcDbBlockBegin
2
*MODEL_SPACE
0
ENDBLK
5
21
100
AcDbEntity
100
AcDbBlockEnd
0
BLOCK
5
1C
100
AcDbEntity
100
AcDbBlockBegin
2
*PAPER_SPACE
0
ENDBLK
5
1D
100
AcDbEntity
100
AcDbBlockEnd
0
ENDSEC
0
SECTION
2
ENTITIES
0
LWPOLYLINE
5
100
100
AcDbEntity
8
0
100
AcDbPolyline
90
4
70
1
43
0.0
10
-0.26250000000000084
20
-0.75000000000000033
10
-0.26250000000000084
20
-7.1240157480314954
10
-7.6115157480314952
20
-7.1240157480314954
10
-7.6115157480314952
20
-0.75000000000000033
0
LWPOLYLINE
5
101
100
AcDbEntity
8
0
100
AcDbPolyline
90
148
70
1
43
0.0
10
-8.3615157480314952
20
-2.3870039370078744
10
-8.2365157480314952
20
-2.3870039370078744
10
-8.2365157480314952
20
-2.3185039370078737
10
-8.1365157480314956
20
-2.3185039370078737
10
-8.1365157480314956
20
-2.3870039370078744
10
-7.9865157480314952
20
-2.3870039370078744
10
-7.9865157480314952
20
-2.5000039370078744
10
-8.1365157480314956
20
-2.5000039370078744
10
-8.1365157480314956
20
-2.5685039370078742
10
-8.2365157480314952
20
-2.5685039370078742
10
-8.2365157480314952
20
-2.5000039370078744
10
-8.3615157480314952
20
-2.5000039370078744
10
-8.3615157480314952
20
-3.737007874015748
10
-8.5615157480314945
20
-3.737007874015748
10
-8.5615157480314945
20
-4.1370078740157483
10
-8.3615157480314952
20
-4.1370078740157483
10
-8.3615157480314952
20
-5.374011811023621
10
-8.2365157480314952
20
-5.374011811023621
10
-8.2365157480314952
20
-5.3055118110236217
10
-8.1365157480314956
20
-5.3055118110236217
10
-8.1365157480314956
20
-5.374011811023621
10
-7.9865157480314952
20
-5.374011811023621
10
-7.9865157480314952
20
-5.4870118110236215
10
-8.1365157480314956
20
-5.4870118110236215
10
-8.1365157480314956
20
-5.5555118110236217
10
-8.2365157480314952
20
-5.5555118110236217
10
-8.2365157480314952
20
-5.4870118110236215
10
-8.3615157480314952
20
-5.4870118110236215
10
-8.3615157480314952
20
-6.7240157480314959
10
-8.5615157480314945
20
-6.7240157480314959
10
-8.5615157480314945
20
-7.1240157480314954
10
-8.3615157480314952
20
-7.1240157480314954
10
-8.3615157480314952
20
-7.8740157480314954
10
-7.6115157480314952
20
-7.8740157480314954
10
-7.6115157480314952
20
-8.0740157480314956
10
-7.2115157480314958
20
-8.0740157480314938
10
-7.2115157480314958
20
-7.8740157480314936
10
-5.7307618110236218
20
-7.8740157480314954
10
-5.7307618110236218
20
-7.7240157400314962
10
-5.799261811023622
20
-7.7240157400314962
10
-5.799261811023622
20
-7.6240157400314956
10
-5.7307618110236218
20
-7.6240157400314956
10
-5.7307618110236218
20
-7.4990157480314954
10
-5.6177618110236214
20
-7.4990157480314954
10
-5.6177618110236214
20
-7.6240157400314956
10
-5.5492618110236211
20
-7.6240157400314956
10
-5.5492618110236211
20
-7.7240157400314962
10
-5.6177618110236214
20
-7.7240157400314962
10
-5.6177618110236214
20
-7.8740157480314954
10
-4.1370078740157483
20
-7.8740157480314954
10
-4.1370078740157483
20
-8.0740157480314956
10
-3.737007874015748
20
-8.0740157480314956
10
-3.737007874015748
20
-7.8740157480314954
10
-2.2562539370078754
20
-7.8740157480314954
10
-2.2562539370078754
20
-7.7240157400314962
10
-2.3247539370078751
20
-7.7240157400314962
10
-2.3247539370078751
20
-7.6240157400314956
10
-2.2562539370078754
20
-7.6240157400314956
10
-2.2562539370078754
20
-7.4990157480314954
10
-2.1432539370078749
20
-7.4990157480314954
10
-2.1432539370078749
20
-7.6240157400314956
10
-2.0747539370078751
20
-7.6240157400314956
10
-2.0747539370078751
20
-7.7240157400314962
10
-2.1432539370078749
20
-7.7240157400314962
10
-2.1432539370078749
20
-7.8740157480314954
10
-0.66250000000000153
20
-7.8740157480314936
10
-0.66250000000000153
20
-8.0740157480314938
10
-0.26250000000000151
20
-8.0740157480314956
10
-0.26250000000000151
20
-7.8740157480314954
10
0.48749999999999888
20
-7.8740157480314954
10
0.48749999999999888
20
-7.1240157480314954
10
0.68749999999999845
20
-7.1240157480314954
10
0.68749999999999845
20
-6.7240157480314959
10
0.48749999999999888
20
-6.7240157480314959
10
0.48749999999999888
20
-5.4870118110236215
10
0.36249999999999855
20
-5.4870118110236215
10
0.36249999999999855
20
-5.5555118110236217
10
0.26249999999999873
20
-5.5555118110236217
10
0.26249999999999873
20
-5.4870118110236215
10
0.11249999999999866
20
-5.4870118110236215
10
0.11249999999999866
20
-5.374011811023621
10
0.26249999999999873
20
-5.374011811023621
10
0.26249999999999873
20
-5.3055118110236217
10
0.36249999999999855
20
-5.3055118110236217
10
0.36249999999999855
20
-5.374011811023621
10
0.48749999999999888
20
-5.374011811023621
10
0.48749999999999888
20
-4.1370078740157483
10
0.68749999999999845
20
-4.1370078740157483
10
0.68749999999999845
20
-3.737007874015748
10
0.48749999999999888
20
-3.737007874015748
10
0.48749999999999888
20
-2.5000039370078744
10
0.36249999999999855
20
-2.5000039370078744
10
0.36249999999999855
20
-2.5685039370078742
10
0.26249999999999873
20
-2.5685039370078742
10
0.26249999999999873
20
-2.5000039370078744
10
0.11249999999999866
20
-2.5000039370078744
10
0.11249999999999866
20
-2.3870039370078735
10
0.26249999999999873
20
-2.3870039370078735
10
0.26249999999999873
20
-2.3185039370078737
10
0.36249999999999855
20
-2.3185039370078737
10
0.36249999999999855
20
-2.3870039370078735
10
0.48749999999999888
20
-2.3870039370078735
10
0.48749999999999888
20
-1.1499999999999997
10
0.68749999999999845
20
-1.1499999999999997
10
0.68749999999999845
20
-0.75000000000000033
10
0.48749999999999888
20
-0.75000000000000033
10
0.48749999999999888
20
0
10
-0.26250000000000151
20
0
10
-0.26250000000000151
20
0.19999999999999823
10
-0.66250000000000153
20
0.19999999999999823
10
-0.66250000000000153
20
-1.3987061727561026e-15
10
-2.1432539370078749
20
0
10
-2.1432539370078749
20
-0.15000000800000074
10
-2.0747539370078751
20
-0.15000000800000074
10
-2.0747539370078751
20
-0.25000000799999988
10
-2.1432539370078749
20
-0.25000000799999988
10
-2.1432539370078749
20
-0.37500000000000017
10
-2.2562539370078754
20
-0.37500000000000017
10
-2.2562539370078754
20
-0.25000000799999988
10
-2.3247539370078751
20
-0.25000000799999988
10
-2.3247539370078751
20
-0.15000000800000074
10
-2.2562539370078754
20
-0.15000000800000074
10
-2.2562539370078754
20
0
10
-3.7370078740157489
20
0
10
-3.7370078740157489
20
0.2000000031914303
10
-4.1370078740157483
20
0.2000000031914303
10
-4.1370078740157483
20
0
10
-5.6177618110236223
20
0
10
-5.6177618110236223
20
-0.15000000800000074
10
-5.549261811023622
20
-0.15000000800000074
10
-5.549261811023622
20
-0.25000000799999988
10
-5.6177618110236223
20
-0.25000000799999988
10
-5.6177618110236223
20
-0.37500000000000017
10
-5.7307618110236209
20
-0.37500000000000017
10
-5.7307618110236209
20
-0.25000000799999988
10
-5.7992618110236211
20
-0.25000000799999988
10
-5.7992618110236211
20
-0.15000000800000074
10
-5.7307618110236209
20
-0.15000000800000074
10
-5.7307618110236209
20
0
10
-7.2115157480314958
20
-1.3987061727561026e-15
10
-7.2115157480314958
20
0.19999999999999823
10
-7.6115157480314952
20
0.19999999999999823
10
-7.6115157480314952
20
0
10
-8.3615157480314952
20
0
10
-8.3615157480314952
20
-0.75000000000000033
10
-8.5615157480314945
20
-0.75000000000000033
10
-8.5615157480314945
20
-1.1499999999999997
10
-8.3615157480314952
20
-1.1499999999999997
0
ENDSEC
0
SECTION
2
OBJECTS
0
DICTIONARY
5
C
100
AcDbDictionary
3
ACAD_GROUP
350
D
3
ACAD_MLINESTYLE
350
17
0
DICTIONARY
5
D
100
AcDbDictionary
0
DICTIONARY
5
1A
330
C
100
AcDbDictionary
0
DICTIONARY
5
17
100
AcDbDictionary
0
ENDSEC
0
EOF
