0
SECTION
2
HEADER
9
$INSUNITS
70
1
9
$ACADVER
1
AC1014
9
$HANDSEED
5
FFFF
0
ENDSEC
0
SECTION
2
TABLES
0
TABLE
2
VPORT
5
8
100
AcDbSymbolTable
0
ENDTAB
0
TABLE
2
LTYPE
5
5
100
AcDbSymbolTable
0
LTYPE
5
14
100
AcDbSymbolTableRecord
100
AcDbLinetypeTableRecord
2
BYBLOCK
70
0
0
LTYPE
5
15
100
AcDbSymbolTableRecord
100
AcDbLinetypeTableRecord
2
BYLAYER
70
0
0
ENDTAB
0
TABLE
2
LAYER
5
2
100
AcDbSymbolTable
70
2
0
LAYER
5
50
100
AcDbSymbolTableRecord
100
AcDbLayerTableRecord
2
0
70
0
6
CONTINUOUS
0
ENDTAB
0
TABLE
2
STYLE
5
3
100
AcDbSymbolTable
70
1
0
STYLE
5
11
100
AcDbSymbolTableRecord
100
AcDbTextStyleTableRecord
2
STANDARD
70
0
0
ENDTAB
0
TABLE
2
VIEW
5
6
100
AcDbSymbolTable
70
0
0
ENDTAB
0
TABLE
2
UCS
5
7
100
AcDbSymbolTable
70
0
0
ENDTAB
0
TABLE
2
APPID
5
9
100
AcDbSymbolTable
70
2
0
APPID
5
12
100
AcDbSymbolTableRecord
100
AcDbRegAppTableRecord
2
ACAD
70
0
0
ENDTAB
0
TABLE
2
DIMSTYLE
5
A
100
AcDbSymbolTable
70
1
0
ENDTAB
0
TABLE
2
BLOCK_RECORD
5
1
100
AcDbSymbolTable
70
1
0
BLOCK_RECORD
5
1F
100
AcDbSymbolTableRecord
100
AcDbBlockTableRecord
2
*MODEL_SPACE
0
BLOCK_RECORD
5
1B
100
AcDbSymbolTableRecord
100
AcDbBlockTableRecord
2
*PAPER_SPACE
0
ENDTAB
0
ENDSEC
0
SECTION
2
BLOCKS
0
BLOCK
5
20
100
AcDbEntity
100
AcDbBlockBegin
2
*MODEL_SPACE
0
ENDBLK
5
21
100
AcDbEntity
100
AcDbBlockEnd
0
BLOCK
5
1C
100
AcDbEntity
100
AcDbBlockBegin
2
*PAPER_SPACE
0
ENDBLK
5
1D
100
AcDbEntity
100
AcDbBlockEnd
0
ENDSEC
0
SECTION
2
ENTITIES
0
CIRCLE
5
100
100
AcDbEntity
8
0
100
AcDbCircle
10
2.4435039370078742
20
-0.60000000000000031
30
0
40
0.056500000000000009
210
0
220
0
230
1
0
CIRCLE
5
101
100
AcDbEntity
8
0
100
AcDbCircle
10
5.4305118110236208
20
-0.60000000000000031
30
0
40
0.056500000000000355
210
0
220
0
230
1
0
CIRCLE
5
102
100
AcDbEntity
8
0
100
AcDbCircle
10
2.4435039370078742
20
14.6
30
0
40
0.056500000000000009
210
0
220
0
230
1
0
CIRCLE
5
103
100
AcDbEntity
8
0
100
AcDbCircle
10
5.4305118110236208
20
14.6
30
0
40
0.056500000000000355
210
0
220
0
230
1
0
LWPOLYLINE
5
104
100
AcDbEntity
8
0
100
AcDbPolyline
90
4
70
1
43
0.0
10
4.1370078740157483
20
-0.49999999999999839
10
4.1370078740157483
20
-0.6999999999999994
10
3.737007874015748
20
-0.6999999999999994
10
3.737007874015748
20
-0.49999999999999839
0
LWPOLYLINE
5
105
100
AcDbEntity
8
0
100
AcDbPolyline
90
4
70
1
43
0.0
10
7.1240157480314954
20
-0.49999999999999839
10
7.1240157480314954
20
-0.6999999999999994
10
6.7240157480314959
20
-0.6999999999999994
10
6.7240157480314959
20
-0.49999999999999839
0
LWPOLYLINE
5
106
100
AcDbEntity
8
0
100
AcDbPolyline
90
4
70
1
43
0.0
10
1.1499999999999997
20
-0.49999999999999839
10
1.1499999999999997
20
-0.6999999999999994
10
0.75000000000000033
20
-0.6999999999999994
10
0.75000000000000033
20
-0.49999999999999839
0
LWPOLYLINE
5
107
100
AcDbEntity
8
0
100
AcDbPolyline
90
4
70
1
43
0.0
10
4.1370078740157483
20
14.699999999999999
10
4.1370078740157483
20
14.499999999999998
10
3.737007874015748
20
14.499999999999998
10
3.737007874015748
20
14.699999999999999
0
LWPOLYLINE
5
108
100
AcDbEntity
8
0
100
AcDbPolyline
90
4
70
1
43
0.0
10
7.1240157480314954
20
14.699999999999999
10
7.1240157480314954
20
14.499999999999998
10
6.7240157480314959
20
14.499999999999998
10
6.7240157480314959
20
14.699999999999999
0
LWPOLYLINE
5
109
100
AcDbEntity
8
0
100
AcDbPolyline
90
4
70
1
43
0.0
10
1.1499999999999997
20
14.699999999999999
10
1.1499999999999997
20
14.499999999999998
10
0.75000000000000033
20
14.499999999999998
10
0.75000000000000033
20
14.699999999999999
0
LWPOLYLINE
5
110
100
AcDbEntity
8
0
100
AcDbPolyline
90
8
70
1
43
0.0
10
1.2499999999999996
20
10.25
10
6.6240157480314936
20
10.25
42
-0.41421356237309503
10
6.8740157480314945
20
10
10
6.8740157480314954
20
7.7500000000000027
42
-0.41421356237309503
10
6.6240157480314954
20
7.5000000000000027
10
1.2499999999999996
20
7.5000000000000009
42
-0.41421356237309503
10
0.99999999999999956
20
7.7500000000000018
10
0.99999999999999745
20
9.9999999999999982
42
-0.41421356237309503
0
LWPOLYLINE
5
111
100
AcDbEntity
8
0
100
AcDbPolyline
90
8
70
1
43
0.0
10
1.2499999999999996
20
6.5
10
6.6240157480314936
20
6.5000000000000018
42
-0.41421356237309587
10
6.8740157480314945
20
6.2499999999999991
10
6.8740157480314954
20
3.9999999999999996
42
-0.41421356237309503
10
6.6240157480314954
20
3.75
10
1.2499999999999996
20
3.7500000000000004
42
-0.41421356237309503
10
0.99999999999999956
20
4
10
1.0000000000000002
20
6.2500000000000009
42
-0.41421356237309503
0
LWPOLYLINE
5
112
100
AcDbEntity
8
0
100
AcDbPolyline
90
8
70
1
43
0.0
10
6.8740157480314954
20
2.5000000000000004
10
6.8740157480314954
20
0.24999999999999925
42
-0.41421356237309415
10
6.6240157480314954
20
-4.3709567898628207e-17
10
1.2499999999999996
20
-1.7483827159451283e-16
42
-0.41421356237309509
10
0.99999999999999944
20
0.24999999999999994
10
0.99999999999999956
20
2.5000000000000004
42
-0.41421356237309503
10
1.2499999999999996
20
2.7500000000000004
10
6.6240157480314936
20
2.7500000000000022
42
-0.41421356237309503
0
LWPOLYLINE
5
113
100
AcDbEntity
8
0
100
AcDbPolyline
90
8
70
1
43
0.0
10
0.99999999999999956
20
11.5
10
1.0000000000000002
20
13.750000000000004
42
-0.41421356237309503
10
1.2499999999999996
20
14.000000000000002
10
6.6240157480314936
20
14
42
-0.41421356237309503
10
6.8740157480314945
20
13.75
10
6.8740157480314954
20
11.500000000000002
42
-0.41421356237309503
10
6.6240157480314954
20
11.250000000000002
10
1.2499999999999996
20
11.25
42
-0.41421356237309503
0
LWPOLYLINE
5
114
100
AcDbEntity
8
0
100
AcDbPolyline
90
140
70
1
43
0.0
10
7.8740157480314954
20
1.3184999999999973
10
7.6740157480314988
20
1.3184999999999973
10
7.6740157480314988
20
1.2499999999999973
10
7.5740157480314982
20
1.249999999999996
10
7.5740157480314982
20
1.3184999999999987
10
7.3740157480314981
20
1.3184999999999973
10
7.3740157480314981
20
1.431499999999998
10
7.5740157480314982
20
1.4314999999999967
10
7.5740157480314982
20
1.4999999999999993
10
7.6740157480314988
20
1.499999999999998
10
7.6740157480314988
20
1.431499999999998
10
7.8740157480314981
20
1.431499999999998
10
7.8740157480314972
20
3.0500000000000012
10
8.0740157480314956
20
3.0500000000000025
10
8.0740157480314956
20
3.4500000000000033
10
7.8740157480314972
20
3.4500000000000002
10
7.8740157480314972
20
5.0685000000000029
10
7.674015748031497
20
5.0685000000000038
10
7.674015748031497
20
5.0000000000000009
10
7.5740157480314965
20
5.0000000000000018
10
7.5740157480314965
20
5.0685000000000038
10
7.3740157480314972
20
5.0685000000000011
10
7.3740157480314972
20
5.1815000000000024
10
7.5740157480314965
20
5.1815000000000015
10
7.5740157480314965
20
5.2500000000000044
10
7.674015748031497
20
5.2500000000000027
10
7.674015748031497
20
5.1815000000000033
10
7.8740157480314972
20
5.1815000000000033
10
7.8740157480314972
20
6.8000000000000016
10
8.0740157480314956
20
6.8000000000000016
10
8.0740157480314956
20
7.200000000000002
10
7.8740157480314972
20
7.1999999999999993
10
7.8740157480314972
20
8.818500000000002
10
7.674015748031497
20
8.818500000000002
10
7.674015748031497
20
8.7500000000000018
10
7.5740157480314965
20
8.7500000000000018
10
7.5740157480314965
20
8.8185000000000038
10
7.3740157480314972
20
8.818500000000002
10
7.3740157480314972
20
8.9315000000000033
10
7.5740157480314965
20
8.9315000000000015
10
7.5740157480314965
20
9.0000000000000053
10
7.674015748031497
20
9.0000000000000018
10
7.674015748031497
20
8.9315000000000033
10
7.8740157480314972
20
8.9315000000000033
10
7.8740157480314972
20
10.550000000000001
10
8.0740157480314956
20
10.550000000000002
10
8.0740157480314956
20
10.950000000000003
10
7.8740157480314972
20
10.949999999999999
10
7.8740157480314972
20
12.568500000000004
10
7.674015748031497
20
12.568500000000004
10
7.674015748031497
20
12.5
10
7.5740157480314965
20
12.500000000000002
10
7.5740157480314965
20
12.568500000000004
10
7.3740157480314972
20
12.5685
10
7.3740157480314972
20
12.681500000000002
10
7.5740157480314965
20
12.6815
10
7.5740157480314965
20
12.750000000000004
10
7.674015748031497
20
12.750000000000002
10
7.674015748031497
20
12.681500000000002
10
7.8740157480314972
20
12.681500000000002
10
7.8740157480314954
20
14.300000000000001
10
8.0740157480314956
20
14.300000000000001
10
8.0740157480314956
20
14.699999999999996
10
7.8740157480314954
20
14.699999999999996
10
7.8740157480314954
20
15
10
0
20
15
10
0
20
14.699999999999999
10
-0.19999999999999962
20
14.699999999999999
10
-0.19999999999999962
20
14.300000000000001
10
0
20
14.300000000000001
10
0
20
12.6815
10
0.19999999999999962
20
12.6815
10
0.19999999999999962
20
12.750000000000002
10
0.30000000000000016
20
12.750000000000002
10
0.30000000000000016
20
12.6815
10
0.50000000000000122
20
12.6815
10
0.49999999999999978
20
12.5685
10
0.30000000000000016
20
12.5685
10
0.30000000000000016
20
12.5
10
0.19999999999999962
20
12.5
10
0.19999999999999962
20
12.5685
10
0
20
12.5685
10
0
20
10.949999999999999
10
-0.19999999999999962
20
10.949999999999999
10
-0.19999999999999962
20
10.550000000000001
10
0
20
10.550000000000001
10
0
20
8.9314999999999998
10
0.19999999999999962
20
8.9314999999999998
10
0.19999999999999962
20
9.0000000000000018
10
0.30000000000000016
20
9
10
0.30000000000000016
20
8.9314999999999998
10
0.50000000000000122
20
8.9314999999999998
10
0.49999999999999978
20
8.8185000000000002
10
0.30000000000000016
20
8.818500000000002
10
0.30000000000000016
20
8.75
10
0.19999999999999962
20
8.75
10
0.19999999999999962
20
8.818500000000002
10
0
20
8.818500000000002
10
0
20
7.2000000000000011
10
-0.19999999999999962
20
7.2000000000000011
10
-0.19999999999999962
20
6.7999999999999998
10
0
20
6.7999999999999998
10
0
20
5.1815000000000007
10
0.19999999999999962
20
5.1815000000000007
10
0.19999999999999962
20
5.2500000000000009
10
0.30000000000000016
20
5.2500000000000009
10
0.30000000000000016
20
5.1814999999999998
10
0.50000000000000122
20
5.1814999999999998
10
0.49999999999999978
20
5.0685000000000002
10
0.30000000000000016
20
5.0685000000000002
10
0.30000000000000016
20
5.0000000000000009
10
0.19999999999999962
20
5.0000000000000009
10
0.19999999999999962
20
5.0685000000000002
10
0
20
5.0685000000000002
10
0
20
3.4500000000000002
10
-0.19999999999999962
20
3.4500000000000002
10
-0.19999999999999962
20
3.0500000000000012
10
0
20
3.0500000000000012
10
2.7974123455122052e-15
20
1.4315000000000009
10
0.20000000000000243
20
1.4315000000000009
10
0.20000000000000243
20
1.5000000000000007
10
0.30000000000000293
20
1.5000000000000007
10
0.30000000000000293
20
1.4315000000000009
10
0.49999999999999978
20
1.4315000000000009
10
0.50000000000000122
20
1.3185000000000016
10
0.30000000000000293
20
1.3185000000000016
10
0.30000000000000293
20
1.2500000000000002
10
0.20000000000000243
20
1.2500000000000002
10
0.20000000000000243
20
1.3185
10
2.7974123455122052e-15
20
1.3185
10
2.7974123455122052e-15
20
-0.30000000000000154
10
-0.19999999999999685
20
-0.30000000000000154
10
-0.19999999999999685
20
-0.70000000000000218
10
2.7974123455122052e-15
20
-0.70000000000000218
10
0
20
-0.99999999999999956
10
7.8740157480314954
20
-0.99999999999999956
10
7.8740157480314981
20
-0.69999999999999807
10
8.0740157480314974
20
-0.69999999999999807
10
8.0740157480314974
20
-0.29999999999999738
10
7.8740157480314981
20
-0.29999999999999738
0
ENDSEC
0
SECTION
2
OBJECTS
0
DICTIONARY
5
C
100
AcDbDictionary
3
ACAD_GROUP
350
D
3
ACAD_MLINESTYLE
350
17
0
DICTIONARY
5
D
100
AcDbDictionary
0
DICTIONARY
5
1A
330
C
100
AcDbDictionary
0
DICTIONARY
5
17
100
AcDbDictionary
0
ENDSEC
0
EOF
